<?xml version="1.0" encoding="iso-8859-1"?>
<!-- Generator: Adobe Illustrator 16.0.0, SVG Export Plug-In . SVG Version: 6.00 Build 0)  -->
<!DOCTYPE svg PUBLIC "-//W3C//DTD SVG 1.1//EN" "http://www.w3.org/Graphics/SVG/1.1/DTD/svg11.dtd">
<svg version="1.1" id="Capa_1" xmlns="http://www.w3.org/2000/svg" xmlns:xlink="http://www.w3.org/1999/xlink" x="0px" y="0px"
	 width="494.175px" height="494.175px" viewBox="0 0 494.175 494.175" style="enable-background:new 0 0 494.175 494.175;"
	 xml:space="preserve">
<g>
	<g>
		<path d="M408.552,286.158c-1.514-1.936-9.939-11.743-26.813-18.18c-14.809-4.582-51.45-16.725-71.511-31.24
			c-0.156-0.118-0.311-0.243-0.467-0.363c-17.896,14.116-39.472,22.372-62.674,22.372s-44.777-8.256-62.674-22.373
			c-0.156,0.12-0.31,0.245-0.467,0.363c-20.06,14.515-56.703,26.659-71.511,31.241c-16.873,6.437-25.3,16.243-26.814,18.178
			C54.59,332.225,51.073,435.582,51.046,436.607c0.277,13.756,4.364,18.455,5.773,19.034
			c69.073,30.732,150.382,38.533,190.268,38.533c39.885,0,121.193-7.801,190.267-38.533c1.409-0.58,5.496-5.278,5.774-19.034
			C443.101,435.583,439.583,332.227,408.552,286.158z"/>
		<path d="M147.98,156.086c-3.338-5.387-5.271-11.731-5.271-18.521V98.721c0-7.123,2.641-20.373,20.314-29.086
			c8.469-4.175,17.538-5.917,21.898-6.754c15.193-2.917,35.505-4.334,62.1-4.334s46.906,1.417,62.097,4.334
			c4.361,0.837,13.434,2.579,21.9,6.754c17.675,8.713,20.314,21.964,20.314,29.086v38.844c0,6.791-1.934,13.134-5.271,18.521v38.881
			c12.258-19.831,19.397-43.561,19.397-69.067C365.459,56.367,312.463,0,247.086,0S128.713,56.367,128.713,125.9
			c0,25.416,7.089,49.068,19.266,68.857L147.98,156.086L147.98,156.086z M241.924,21.036l5.163,0.74l5.163-0.74
			c8.667-3.117,41.771-14.346,29.429,0.74c-14.15,17.296-16.771,10.482-16.771,10.482l-17.82,13.628l-17.819-13.628
			c0,0-2.62,6.814-16.772-10.483C200.152,6.69,233.26,17.919,241.924,21.036z"/>
		<path d="M267.978,177.632c-9.34,0-15.422-7.014-20.891-14.86c-5.469,7.846-11.549,14.86-20.889,14.86h-46.196
			c-6.823,0-13.129-2.248-18.223-6.042v26.327c0,0,26.011,51.266,85.308,51.266c59.296,0,85.307-51.266,85.307-51.266V171.59
			c-5.09,3.794-11.398,6.042-18.222,6.042H267.978z"/>
		<path d="M337.666,96.105c0-16.387-23.384-20.877-31.069-22.354c-14.327-2.75-33.791-4.087-59.509-4.087
			c-25.715,0-45.182,1.336-59.509,4.087c-7.684,1.477-31.069,5.967-31.069,22.354v50.844c0,11.878,9.666,21.541,21.542,21.541
			h44.848c7.238,0,17.145-7.417,24.188-14.331c7.044,6.913,16.95,14.331,24.189,14.331h44.847c11.879,0,21.542-9.663,21.542-21.541
			V96.105L337.666,96.105z M325.659,146.948c0,5.258-4.276,9.535-9.535,9.535H271.29c-2.761-0.116-12.445-6.606-19.649-14.99
			l-4.553-5.297l-4.552,5.297c-7.205,8.383-16.888,14.874-19.637,14.99H178.05c-5.257,0-9.535-4.277-9.535-9.535V96.105
			c0-2.412,3.788-14.435,78.571-14.435s78.571,12.023,78.571,14.435L325.659,146.948L325.659,146.948z"/>
	</g>
</g>
<g>
</g>
<g>
</g>
<g>
</g>
<g>
</g>
<g>
</g>
<g>
</g>
<g>
</g>
<g>
</g>
<g>
</g>
<g>
</g>
<g>
</g>
<g>
</g>
<g>
</g>
<g>
</g>
<g>
</g>
</svg>
